<?xml version="1.0" encoding="utf-8"?>
<!-- Generator: Adobe Illustrator 25.1.0, SVG Export Plug-In . SVG Version: 6.00 Build 0)  -->
<svg version="1.0" id="Layer_1" xmlns="http://www.w3.org/2000/svg" xmlns:xlink="http://www.w3.org/1999/xlink" x="0px" y="0px"
	 viewBox="0 0 280 300" enable-background="new 0 0 280 300" xml:space="preserve">
<path id="path946" display="none" fill="#FFFFFF" d="M-480.58-97.42c0-113.25,0-226.49,0-339.75c160.19,0,320.39,0,480.58,0
	C0-323.91,0-210.67,0-97.42C-160.19-97.42-320.39-97.42-480.58-97.42z"/>
<g>
	<polygon fill-rule="evenodd" clip-rule="evenodd" fill="#006BB5" points="32.88,164.34 56.13,164.34 61.11,152.92 83.89,152.92 
		78.78,164.33 102.3,164.33 115.21,135.73 91.51,135.73 87.26,145.37 64.5,145.37 68.81,135.73 45.8,135.72 	"/>
	<path fill-rule="evenodd" clip-rule="evenodd" fill="#006BB5" d="M166.76,145.46h22c-0.14-4.81-4.81-8.13-14-9.46
		c-18.16-2.66-37.81-1.53-51.79,6.19c-11.03,6.11-11.87,15.34-0.89,19.84c9.23,3.77,28.65,4.16,42.54,1.8
		c9-1.53,15.88-4.49,19.74-8.91h-22.47c-2.91,2.23-6.7,3.35-11.16,3.39c-12.6,0.08-14.27-3.73-12.07-8.13
		c2.61-5.18,8.1-8,16.47-8.23C161.72,141.79,164.98,143.24,166.76,145.46L166.76,145.46z"/>
	<polygon fill-rule="evenodd" clip-rule="evenodd" fill="#006BB5" points="223.87,135.72 214.09,157.5 247.12,157.5 244.05,164.32 
		187.25,164.32 200.05,135.72 	"/>
</g>
</svg>
